<svg width="199" height="57" viewBox="0 0 199 57" fill="none" xmlns="http://www.w3.org/2000/svg">
<path d="M0.322568 0.779011H15.0453C17.4937 0.779011 19.7579 1.11442 21.838 1.78523C23.9397 2.45605 25.6297 3.55964 26.908 5.09602C28.2081 6.61076 28.8581 8.66648 28.8581 11.2632C28.8581 12.9727 28.5331 14.4982 27.8831 15.8399C27.2547 17.1815 26.4097 18.2851 25.348 19.1506C24.308 19.9946 23.1705 20.5572 21.9355 20.8385C23.0188 20.9683 24.0697 21.2821 25.088 21.7798C26.128 22.2559 27.0597 22.9267 27.8831 23.7922C28.7281 24.6362 29.3889 25.6965 29.8656 26.9732C30.3639 28.2283 30.6131 29.7214 30.6131 31.4525C30.6131 33.8544 30.0714 35.9751 28.9881 37.8144C27.9264 39.6321 26.3664 41.0603 24.308 42.099C22.2713 43.116 19.7688 43.6245 16.8004 43.6245H0.322568V0.779011ZM10.0402 35.8669H14.4603C15.847 35.8669 16.9737 35.6613 17.8404 35.2502C18.7287 34.8174 19.3787 34.2115 19.7904 33.4325C20.2021 32.6318 20.4079 31.6797 20.4079 30.5761C20.4079 28.845 19.8663 27.5791 18.7829 26.7784C17.7212 25.9562 16.2262 25.545 14.2978 25.545H10.0402V35.8669ZM10.0402 17.9497H13.9728C15.1212 17.9497 16.0745 17.7441 16.8329 17.333C17.6129 16.9218 18.1979 16.3484 18.5879 15.6126C18.9996 14.8553 19.2054 13.9897 19.2054 13.0159C19.2054 11.2632 18.7071 10.0838 17.7104 9.47795C16.7137 8.85041 15.3487 8.53664 13.6153 8.53664H10.0402V17.9497Z" fill="#013B72"/>
<path d="M55.8397 34.7957C57.833 34.7957 59.6422 34.5036 61.2673 33.9194C62.914 33.3351 64.1381 32.7617 64.9398 32.199L69.0999 40.4436C68.0815 41.3091 66.3373 42.1855 63.8673 43.0727C61.4189 43.9599 58.5047 44.4035 55.1246 44.4035C51.9613 44.4035 48.9929 43.8517 46.2195 42.7481C43.4461 41.6445 40.9977 40.0973 38.8744 38.1065C36.7727 36.0941 35.1151 33.7462 33.9018 31.063C32.7101 28.3581 32.1142 25.426 32.1142 22.2667C32.1142 19.1074 32.7101 16.1753 33.9018 13.4704C35.0935 10.7438 36.7401 8.37435 38.8419 6.36191C40.9652 4.34947 43.4136 2.79145 46.187 1.68785C48.982 0.562618 51.9613 0 55.1246 0C58.5047 0 61.4189 0.443603 63.8673 1.33081C66.3373 2.21801 68.0815 3.0944 69.0999 3.95997L64.9398 12.2045C64.1381 11.6202 62.914 11.0468 61.2673 10.4842C59.6422 9.89991 57.833 9.60778 55.8397 9.60778C53.6296 9.60778 51.7013 9.95401 50.0546 10.6465C48.4079 11.3173 47.032 12.2478 45.927 13.4379C44.822 14.6281 43.9986 15.9697 43.4569 17.4628C42.9153 18.9559 42.6444 20.5247 42.6444 22.1693C42.6444 23.8355 42.9153 25.426 43.4569 26.9407C43.9986 28.4338 44.822 29.7755 45.927 30.9656C47.032 32.1558 48.4079 33.0971 50.0546 33.7895C51.7013 34.4603 53.6296 34.7957 55.8397 34.7957Z" fill="#013B72"/>
<path d="M76.6746 13.0809L69.8494 16.6513V7.43305L81.8097 0.779011H86.3922V43.6245H76.6746V13.0809Z" fill="#013B72"/>
<path d="M88.4819 22.2342C88.4819 18.5123 88.9478 15.2664 89.8795 12.4966C90.8328 9.70516 92.122 7.38977 93.747 5.55044C95.3937 3.68947 97.2571 2.30457 99.3371 1.39572C101.439 0.465241 103.638 0 105.935 0C108.231 0 110.42 0.465241 112.5 1.39572C114.602 2.30457 116.465 3.68947 118.09 5.55044C119.715 7.38977 120.993 9.70516 121.925 12.4966C122.857 15.2664 123.323 18.5123 123.323 22.2342C123.323 26.1942 122.857 29.5807 121.925 32.3938C120.993 35.2069 119.715 37.5006 118.09 39.275C116.465 41.0278 114.602 42.3262 112.5 43.1701C110.42 43.9924 108.231 44.4035 105.935 44.4035C103.638 44.4035 101.439 43.9924 99.3371 43.1701C97.2571 42.3262 95.3937 41.0278 93.747 39.275C92.122 37.5006 90.8328 35.2069 89.8795 32.3938C88.9478 29.5807 88.4819 26.1942 88.4819 22.2342ZM98.2321 22.2342C98.2321 25.3286 98.5463 27.882 99.1746 29.8945C99.803 31.9069 100.691 33.4108 101.84 34.4062C102.988 35.38 104.353 35.8669 105.935 35.8669C107.516 35.8669 108.871 35.38 109.997 34.4062C111.146 33.4108 112.023 31.9069 112.63 29.8945C113.258 27.8604 113.572 25.307 113.572 22.2342C113.572 19.3346 113.258 16.8677 112.63 14.8336C112.023 12.7996 111.146 11.2415 109.997 10.1596C108.871 9.07762 107.516 8.53664 105.935 8.53664C104.353 8.53664 102.988 9.07762 101.84 10.1596C100.691 11.2415 99.803 12.7996 99.1746 14.8336C98.5463 16.8677 98.2321 19.3346 98.2321 22.2342Z" fill="#013B72"/>
<path d="M123.763 22.2342C123.763 18.5123 124.229 15.2664 125.16 12.4966C126.114 9.70516 127.403 7.38977 129.028 5.55044C130.675 3.68947 132.538 2.30457 134.618 1.39572C136.72 0.465241 138.919 0 141.216 0C143.512 0 145.701 0.465241 147.781 1.39572C149.882 2.30457 151.746 3.68947 153.371 5.55044C154.996 7.38977 156.274 9.70516 157.206 12.4966C158.138 15.2664 158.603 18.5123 158.603 22.2342C158.603 26.1942 158.138 29.5807 157.206 32.3938C156.274 35.2069 154.996 37.5006 153.371 39.275C151.746 41.0278 149.882 42.3262 147.781 43.1701C145.701 43.9924 143.512 44.4035 141.216 44.4035C138.919 44.4035 136.72 43.9924 134.618 43.1701C132.538 42.3262 130.675 41.0278 129.028 39.275C127.403 37.5006 126.114 35.2069 125.16 32.3938C124.229 29.5807 123.763 26.1942 123.763 22.2342ZM133.513 22.2342C133.513 25.3286 133.827 27.882 134.456 29.8945C135.084 31.9069 135.972 33.4108 137.121 34.4062C138.269 35.38 139.634 35.8669 141.216 35.8669C142.797 35.8669 144.152 35.38 145.278 34.4062C146.427 33.4108 147.304 31.9069 147.911 29.8945C148.539 27.8604 148.853 25.307 148.853 22.2342C148.853 19.3346 148.539 16.8677 147.911 14.8336C147.304 12.7996 146.427 11.2415 145.278 10.1596C144.152 9.07762 142.797 8.53664 141.216 8.53664C139.634 8.53664 138.269 9.07762 137.121 10.1596C135.972 11.2415 135.084 12.7996 134.456 14.8336C133.827 16.8677 133.513 19.3346 133.513 22.2342Z" fill="#013B72"/>
<path d="M185.263 26.512V39.3657H174.225V26.512H161.355V15.5775H174.225V2.72383H185.263V15.5775H198.044V26.512H185.263Z" fill="#013B72"/>
<path d="M0 49.8241H2.3311C2.71876 49.8241 3.07726 49.8772 3.4066 49.9834C3.73937 50.0897 4.00696 50.2644 4.20937 50.5077C4.4152 50.7475 4.51812 51.073 4.51812 51.4841C4.51812 51.7548 4.46666 51.9963 4.36375 52.2088C4.26426 52.4212 4.13046 52.5959 3.96236 52.733C3.79769 52.8666 3.61759 52.9557 3.42204 53.0002C3.59357 53.0208 3.75996 53.0704 3.9212 53.1493C4.08587 53.2246 4.23338 53.3308 4.36375 53.4679C4.49754 53.6015 4.60217 53.7694 4.67765 53.9715C4.75655 54.1703 4.796 54.4067 4.796 54.6808C4.796 55.0611 4.71024 55.3968 4.53871 55.6881C4.37061 55.9759 4.1236 56.202 3.79769 56.3665C3.47522 56.5275 3.07898 56.608 2.60898 56.608H0V49.8241ZM1.53863 55.3797H2.23848C2.45804 55.3797 2.63643 55.3472 2.77365 55.2821C2.91431 55.2135 3.01723 55.1176 3.08241 54.9943C3.14759 54.8675 3.18018 54.7167 3.18018 54.542C3.18018 54.2679 3.09442 54.0675 2.92289 53.9407C2.75479 53.8105 2.51807 53.7454 2.21275 53.7454H1.53863V55.3797ZM1.53863 52.5428H2.16129C2.34311 52.5428 2.49406 52.5103 2.61413 52.4452C2.73763 52.3801 2.83026 52.2893 2.89201 52.1728C2.95719 52.0529 2.98978 51.9158 2.98978 51.7616C2.98978 51.4841 2.91088 51.2974 2.75307 51.2015C2.59526 51.1021 2.37913 51.0524 2.10468 51.0524H1.53863V52.5428Z" fill="#013B72"/>
<path d="M5.74896 49.8241H7.2876V55.2615H9.75249V56.608H5.74896V49.8241Z" fill="#013B72"/>
<path d="M11.9767 53.2109C11.9767 53.5981 12.0556 53.9493 12.2134 54.2645C12.3746 54.5763 12.5959 54.8247 12.8772 55.0097C13.1619 55.1947 13.4913 55.2872 13.8652 55.2872C14.2392 55.2872 14.5668 55.1947 14.8481 55.0097C15.1328 54.8247 15.3541 54.5763 15.5119 54.2645C15.6732 53.9493 15.7538 53.5981 15.7538 53.2109C15.7538 52.8238 15.6732 52.4743 15.5119 52.1625C15.3541 51.8507 15.1328 51.6023 14.8481 51.4173C14.5668 51.2289 14.2392 51.1346 13.8652 51.1346C13.4913 51.1346 13.1619 51.2289 12.8772 51.4173C12.5959 51.6023 12.3746 51.8507 12.2134 52.1625C12.0556 52.4743 11.9767 52.8238 11.9767 53.2109ZM10.3763 53.2109C10.3763 52.7176 10.4638 52.2584 10.6387 51.8336C10.8137 51.4053 11.059 51.0319 11.3746 50.7132C11.6902 50.3946 12.0607 50.1462 12.4861 49.968C12.9115 49.7899 13.3712 49.7008 13.8652 49.7008C14.3661 49.7008 14.8275 49.7899 15.2495 49.968C15.6749 50.1462 16.0437 50.3946 16.3558 50.7132C16.6715 51.0319 16.915 51.4053 17.0866 51.8336C17.2615 52.2584 17.349 52.7176 17.349 53.2109C17.349 53.7077 17.265 54.1703 17.0969 54.5985C16.9288 55.0234 16.6886 55.3968 16.3764 55.7189C16.0642 56.0375 15.6954 56.2859 15.2701 56.4641C14.8447 56.6423 14.3764 56.7313 13.8652 56.7313C13.3438 56.7313 12.8686 56.6423 12.4398 56.4641C12.0144 56.2859 11.6473 56.0375 11.3386 55.7189C11.0298 55.3968 10.7914 55.0234 10.6233 54.5985C10.4586 54.1703 10.3763 53.7077 10.3763 53.2109Z" fill="#013B72"/>
<path d="M21.8279 55.2101C22.1435 55.2101 22.43 55.1639 22.6873 55.0713C22.948 54.9788 23.1418 54.888 23.2688 54.799L23.9274 56.1043C23.7662 56.2414 23.49 56.3802 23.0989 56.5206C22.7113 56.6611 22.2499 56.7313 21.7147 56.7313C21.2138 56.7313 20.7438 56.644 20.3047 56.4692C19.8656 56.2945 19.4779 56.0495 19.1417 55.7343C18.8089 55.4157 18.5465 55.0439 18.3544 54.6191C18.1657 54.1908 18.0714 53.7266 18.0714 53.2263C18.0714 52.7261 18.1657 52.2619 18.3544 51.8336C18.5431 51.4019 18.8038 51.0267 19.1366 50.7081C19.4728 50.3895 19.8604 50.1428 20.2996 49.968C20.7421 49.7899 21.2138 49.7008 21.7147 49.7008C22.2499 49.7008 22.7113 49.771 23.0989 49.9115C23.49 50.052 23.7662 50.1907 23.9274 50.3278L23.2688 51.6332C23.1418 51.5407 22.948 51.4499 22.6873 51.3608C22.43 51.2683 22.1435 51.222 21.8279 51.222C21.478 51.222 21.1726 51.2768 20.9119 51.3865C20.6512 51.4927 20.4333 51.64 20.2584 51.8285C20.0834 52.0169 19.9531 52.2293 19.8673 52.4657C19.7815 52.7021 19.7386 52.9505 19.7386 53.2109C19.7386 53.4747 19.7815 53.7266 19.8673 53.9664C19.9531 54.2028 20.0834 54.4152 20.2584 54.6037C20.4333 54.7921 20.6512 54.9412 20.9119 55.0508C21.1726 55.157 21.478 55.2101 21.8279 55.2101Z" fill="#013B72"/>
<path d="M27.638 53.103L30.2212 56.608H28.3841L26.2949 53.6426V56.608H24.7562V49.8241H26.2949V52.5993L28.2195 49.8241H29.9536L27.638 53.103Z" fill="#013B72"/>
<path d="M34.4213 55.2101C34.737 55.2101 35.0234 55.1639 35.2807 55.0713C35.5414 54.9788 35.7353 54.888 35.8622 54.799L36.5209 56.1043C36.3596 56.2414 36.0835 56.3802 35.6924 56.5206C35.3047 56.6611 34.8433 56.7313 34.3081 56.7313C33.8073 56.7313 33.3373 56.644 32.8981 56.4692C32.459 56.2945 32.0714 56.0495 31.7352 55.7343C31.4024 55.4157 31.14 55.0439 30.9478 54.6191C30.7592 54.1908 30.6648 53.7266 30.6648 53.2263C30.6648 52.7261 30.7592 52.2619 30.9478 51.8336C31.1365 51.4019 31.3973 51.0267 31.73 50.7081C32.0662 50.3895 32.4539 50.1428 32.893 49.968C33.3355 49.7899 33.8073 49.7008 34.3081 49.7008C34.8433 49.7008 35.3047 49.771 35.6924 49.9115C36.0835 50.052 36.3596 50.1907 36.5209 50.3278L35.8622 51.6332C35.7353 51.5407 35.5414 51.4499 35.2807 51.3608C35.0234 51.2683 34.737 51.222 34.4213 51.222C34.0714 51.222 33.7661 51.2768 33.5054 51.3865C33.2446 51.4927 33.0268 51.64 32.8518 51.8285C32.6769 52.0169 32.5465 52.2293 32.4607 52.4657C32.375 52.7021 32.3321 52.9505 32.3321 53.2109C32.3321 53.4747 32.375 53.7266 32.4607 53.9664C32.5465 54.2028 32.6769 54.4152 32.8518 54.6037C33.0268 54.7921 33.2446 54.9412 33.5054 55.0508C33.7661 55.157 34.0714 55.2101 34.4213 55.2101Z" fill="#013B72"/>
<path d="M41.3378 53.879H38.9912V56.608H37.4578V49.8241H38.9912V52.5377H41.3378V49.8241H42.8661V56.608H41.3378V53.879Z" fill="#013B72"/>
<path d="M46.2333 49.8241H47.7617L50.4427 56.608H48.8011L48.3071 55.2461H45.693L45.1939 56.608H43.5472L46.2333 49.8241ZM46.2076 53.8996H47.7977L47.0104 51.6743H46.9949L46.2076 53.8996Z" fill="#013B72"/>
<path d="M51.0425 49.8241H52.5812V56.608H51.0425V49.8241Z" fill="#013B72"/>
<path d="M55.1954 51.2323L55.3086 51.2529V56.608H53.7699V49.8241H55.8695L58.6225 55.169L58.5093 55.1896V49.8241H60.048V56.608H57.9381L55.1954 51.2323Z" fill="#013B72"/>
<path d="M63.9723 49.8241H67.8986V51.1706H65.5109V52.5377H67.7185V53.879H65.5109V56.608H63.9723V49.8241Z" fill="#013B72"/>
<path d="M70.2603 53.2109C70.2603 53.5981 70.3392 53.9493 70.497 54.2645C70.6583 54.5763 70.8795 54.8247 71.1608 55.0097C71.4456 55.1947 71.7749 55.2872 72.1489 55.2872C72.5228 55.2872 72.8504 55.1947 73.1317 55.0097C73.4165 54.8247 73.6377 54.5763 73.7955 54.2645C73.9568 53.9493 74.0374 53.5981 74.0374 53.2109C74.0374 52.8238 73.9568 52.4743 73.7955 52.1625C73.6377 51.8507 73.4165 51.6023 73.1317 51.4173C72.8504 51.2289 72.5228 51.1346 72.1489 51.1346C71.7749 51.1346 71.4456 51.2289 71.1608 51.4173C70.8795 51.6023 70.6583 51.8507 70.497 52.1625C70.3392 52.4743 70.2603 52.8238 70.2603 53.2109ZM68.6599 53.2109C68.6599 52.7176 68.7474 52.2584 68.9224 51.8336C69.0973 51.4053 69.3426 51.0319 69.6582 50.7132C69.9738 50.3946 70.3443 50.1462 70.7697 49.968C71.1951 49.7899 71.6548 49.7008 72.1489 49.7008C72.6497 49.7008 73.1111 49.7899 73.5331 49.968C73.9585 50.1462 74.3273 50.3946 74.6395 50.7132C74.9551 51.0319 75.1987 51.4053 75.3702 51.8336C75.5452 52.2584 75.6327 52.7176 75.6327 53.2109C75.6327 53.7077 75.5486 54.1703 75.3805 54.5985C75.2124 55.0234 74.9723 55.3968 74.6601 55.7189C74.3479 56.0375 73.9791 56.2859 73.5537 56.4641C73.1283 56.6423 72.66 56.7313 72.1489 56.7313C71.6274 56.7313 71.1523 56.6423 70.7234 56.4641C70.298 56.2859 69.931 56.0375 69.6222 55.7189C69.3134 55.3968 69.075 55.0234 68.9069 54.5985C68.7423 54.1703 68.6599 53.7077 68.6599 53.2109Z" fill="#013B72"/>
<path d="M76.4837 49.8241H79.2522C79.6467 49.8241 79.9983 49.9064 80.3071 50.0708C80.6158 50.2353 80.8594 50.4734 81.0378 50.7852C81.2196 51.0935 81.3105 51.4619 81.3105 51.8901C81.3105 52.3184 81.2333 52.6696 81.079 52.9437C80.928 53.2144 80.7462 53.4182 80.5335 53.5553C80.3208 53.6889 80.1235 53.7694 79.9417 53.7968L81.5936 56.608H79.8645L78.3928 53.915H78.0223V56.608H76.4837V49.8241ZM78.0223 52.8512H78.7015C78.976 52.8512 79.2161 52.7844 79.422 52.6507C79.6278 52.5171 79.7307 52.2807 79.7307 51.9415C79.7307 51.6023 79.6295 51.3676 79.4271 51.2374C79.2247 51.1038 78.9863 51.037 78.7118 51.037H78.0223V52.8512Z" fill="#013B72"/>
<path d="M87.5314 49.8241H89.0597L91.7408 56.608H90.0992L89.6052 55.2461H86.9911L86.4919 56.608H84.8452L87.5314 49.8241ZM87.5057 53.8996H89.0958L88.3084 51.6743H88.293L87.5057 53.8996Z" fill="#013B72"/>
<path d="M97.4829 49.7008C97.9049 49.7008 98.2736 49.747 98.5893 49.8395C98.9049 49.9321 99.1587 50.0297 99.3509 50.1325C99.543 50.2353 99.6596 50.3038 99.7008 50.3381L98.9598 51.5766C98.9049 51.5355 98.8105 51.4756 98.6767 51.3968C98.5464 51.3179 98.3903 51.2477 98.2085 51.186C98.0301 51.1244 97.8431 51.0935 97.6476 51.0935C97.3834 51.0935 97.169 51.1415 97.0043 51.2374C96.8431 51.3299 96.7625 51.4687 96.7625 51.6537C96.7625 51.7805 96.8053 51.8953 96.8911 51.9981C96.9803 52.0974 97.1141 52.1933 97.2925 52.2859C97.4743 52.3749 97.7042 52.4726 97.982 52.5788C98.2359 52.6713 98.4743 52.7809 98.6973 52.9077C98.9203 53.0345 99.1159 53.1852 99.284 53.36C99.4555 53.5313 99.591 53.73 99.6905 53.9561C99.79 54.1823 99.8397 54.4392 99.8397 54.727C99.8397 55.0696 99.7694 55.3677 99.6287 55.6213C99.4881 55.8714 99.296 56.0787 99.0524 56.2431C98.8123 56.4076 98.5378 56.5292 98.2291 56.608C97.9237 56.6902 97.6064 56.7313 97.2771 56.7313C96.8105 56.7313 96.392 56.6782 96.0214 56.572C95.6544 56.4658 95.3576 56.351 95.1312 56.2277C94.9048 56.1043 94.7693 56.0221 94.7247 55.981L95.4914 54.691C95.5326 54.7219 95.6115 54.7716 95.7281 54.8401C95.8482 54.9086 95.994 54.9806 96.1655 55.0559C96.3371 55.1279 96.5189 55.1896 96.711 55.2409C96.9065 55.2923 97.0987 55.318 97.2873 55.318C97.603 55.318 97.8397 55.2581 97.9975 55.1382C98.1553 55.0148 98.2342 54.8538 98.2342 54.6551C98.2342 54.5077 98.1844 54.3758 98.085 54.2593C97.9855 54.1429 97.8362 54.0332 97.6373 53.9304C97.4383 53.8242 97.1896 53.7129 96.8911 53.5964C96.5926 53.4765 96.313 53.3308 96.0523 53.1595C95.795 52.9882 95.5858 52.7741 95.4245 52.5171C95.2633 52.2602 95.1827 51.9415 95.1827 51.5612C95.1827 51.1809 95.289 50.852 95.5017 50.5745C95.7178 50.2935 96.0009 50.0777 96.3508 49.9269C96.7041 49.7762 97.0815 49.7008 97.4829 49.7008Z" fill="#013B72"/>
<path d="M104.693 49.8241H106.232V53.9921C106.232 54.5506 106.122 55.0354 105.902 55.4465C105.683 55.8542 105.369 56.1712 104.961 56.3973C104.552 56.62 104.065 56.7313 103.499 56.7313C102.93 56.7313 102.439 56.62 102.027 56.3973C101.616 56.1712 101.3 55.8542 101.081 55.4465C100.864 55.0354 100.756 54.5506 100.756 53.9921V49.8241H102.29V53.9099C102.29 54.2182 102.338 54.4786 102.434 54.691C102.533 54.9035 102.674 55.0645 102.856 55.1741C103.038 55.2803 103.252 55.3335 103.499 55.3335C103.743 55.3335 103.954 55.2803 104.132 55.1741C104.311 55.0645 104.448 54.9035 104.544 54.691C104.643 54.4786 104.693 54.2182 104.693 53.9099V49.8241Z" fill="#013B72"/>
<path d="M109.795 49.7008C110.217 49.7008 110.586 49.747 110.901 49.8395C111.217 49.9321 111.471 50.0297 111.663 50.1325C111.855 50.2353 111.972 50.3038 112.013 50.3381L111.272 51.5766C111.217 51.5355 111.123 51.4756 110.989 51.3968C110.858 51.3179 110.702 51.2477 110.521 51.186C110.342 51.1244 110.155 51.0935 109.96 51.0935C109.695 51.0935 109.481 51.1415 109.316 51.2374C109.155 51.3299 109.074 51.4687 109.074 51.6537C109.074 51.7805 109.117 51.8953 109.203 51.9981C109.292 52.0974 109.426 52.1933 109.605 52.2859C109.786 52.3749 110.016 52.4726 110.294 52.5788C110.548 52.6713 110.786 52.7809 111.009 52.9077C111.232 53.0345 111.428 53.1852 111.596 53.36C111.768 53.5313 111.903 53.73 112.003 53.9561C112.102 54.1823 112.152 54.4392 112.152 54.727C112.152 55.0696 112.081 55.3677 111.941 55.6213C111.8 55.8714 111.608 56.0787 111.364 56.2431C111.124 56.4076 110.85 56.5292 110.541 56.608C110.236 56.6902 109.918 56.7313 109.589 56.7313C109.123 56.7313 108.704 56.6782 108.333 56.572C107.966 56.4658 107.67 56.351 107.443 56.2277C107.217 56.1043 107.081 56.0221 107.037 55.981L107.803 54.691C107.845 54.7219 107.924 54.7716 108.04 54.8401C108.16 54.9086 108.306 54.9806 108.478 55.0559C108.649 55.1279 108.831 55.1896 109.023 55.2409C109.219 55.2923 109.411 55.318 109.599 55.318C109.915 55.318 110.152 55.2581 110.31 55.1382C110.467 55.0148 110.546 54.8538 110.546 54.6551C110.546 54.5077 110.496 54.3758 110.397 54.2593C110.298 54.1429 110.148 54.0332 109.949 53.9304C109.75 53.8242 109.502 53.7129 109.203 53.5964C108.905 53.4765 108.625 53.3308 108.364 53.1595C108.107 52.9882 107.898 52.7741 107.737 52.5171C107.575 52.2602 107.495 51.9415 107.495 51.5612C107.495 51.1809 107.601 50.852 107.814 50.5745C108.03 50.2935 108.313 50.0777 108.663 49.9269C109.016 49.7762 109.394 49.7008 109.795 49.7008Z" fill="#013B72"/>
<path d="M114.345 51.1706H112.724V49.8241H117.499V51.1706H115.883V56.608H114.345V51.1706Z" fill="#013B72"/>
<path d="M119.774 49.8241H121.302L123.983 56.608H122.342L121.848 55.2461H119.234L118.734 56.608H117.088L119.774 49.8241ZM119.748 53.8996H121.338L120.551 51.6743H120.535L119.748 53.8996Z" fill="#013B72"/>
<path d="M124.583 49.8241H126.122V56.608H124.583V49.8241Z" fill="#013B72"/>
<path d="M128.736 51.2323L128.849 51.2529V56.608H127.31V49.8241H129.41L132.163 55.169L132.05 55.1896V49.8241H133.588V56.608H131.479L128.736 51.2323Z" fill="#013B72"/>
<path d="M136.95 49.8241H138.479L141.16 56.608H139.518L139.024 55.2461H136.41L135.911 56.608H134.264L136.95 49.8241ZM136.925 53.8996H138.515L137.727 51.6743H137.712L136.925 53.8996Z" fill="#013B72"/>
<path d="M141.744 49.8241H144.075C144.463 49.8241 144.821 49.8772 145.151 49.9834C145.483 50.0897 145.751 50.2644 145.953 50.5077C146.159 50.7475 146.262 51.073 146.262 51.4841C146.262 51.7548 146.211 51.9963 146.108 52.2088C146.008 52.4212 145.875 52.5959 145.706 52.733C145.542 52.8666 145.362 52.9557 145.166 53.0002C145.338 53.0208 145.504 53.0704 145.665 53.1493C145.83 53.2246 145.978 53.3308 146.108 53.4679C146.242 53.6015 146.346 53.7694 146.422 53.9715C146.501 54.1703 146.54 54.4067 146.54 54.6808C146.54 55.0611 146.454 55.3968 146.283 55.6881C146.115 55.9759 145.868 56.202 145.542 56.3665C145.219 56.5275 144.823 56.608 144.353 56.608H141.744V49.8241ZM143.283 55.3797H143.983C144.202 55.3797 144.381 55.3472 144.518 55.2821C144.658 55.2135 144.761 55.1176 144.827 54.9943C144.892 54.8675 144.924 54.7167 144.924 54.542C144.924 54.2679 144.839 54.0675 144.667 53.9407C144.499 53.8105 144.262 53.7454 143.957 53.7454H143.283V55.3797ZM143.283 52.5428H143.905C144.087 52.5428 144.238 52.5103 144.358 52.4452C144.482 52.3801 144.574 52.2893 144.636 52.1728C144.701 52.0529 144.734 51.9158 144.734 51.7616C144.734 51.4841 144.655 51.2974 144.497 51.2015C144.339 51.1021 144.123 51.0524 143.849 51.0524H143.283V52.5428Z" fill="#013B72"/>
<path d="M147.493 49.8241H149.032V55.2615H151.497V56.608H147.493V49.8241Z" fill="#013B72"/>
<path d="M152.497 49.8241H156.835V51.1706H154.031V52.5531H156.81V53.8585H154.031V55.2615H156.835V56.608H152.497V49.8241Z" fill="#013B72"/>
<path d="M160.76 49.8241H164.686V51.1706H162.299V52.5377H164.506V53.879H162.299V56.608H160.76V49.8241Z" fill="#013B72"/>
<path d="M169.59 49.8241H171.129V53.9921C171.129 54.5506 171.019 55.0354 170.799 55.4465C170.58 55.8542 170.266 56.1712 169.858 56.3973C169.449 56.62 168.962 56.7313 168.396 56.7313C167.827 56.7313 167.336 56.62 166.924 56.3973C166.513 56.1712 166.197 55.8542 165.978 55.4465C165.761 55.0354 165.653 54.5506 165.653 53.9921V49.8241H167.187V53.9099C167.187 54.2182 167.235 54.4786 167.331 54.691C167.43 54.9035 167.571 55.0645 167.753 55.1741C167.935 55.2803 168.149 55.3335 168.396 55.3335C168.64 55.3335 168.851 55.2803 169.029 55.1741C169.207 55.0645 169.345 54.9035 169.441 54.691C169.54 54.4786 169.59 54.2182 169.59 53.9099V49.8241Z" fill="#013B72"/>
<path d="M173.483 51.1706H171.862V49.8241H176.637V51.1706H175.021V56.608H173.483V51.1706Z" fill="#013B72"/>
<path d="M181.389 49.8241H182.928V53.9921C182.928 54.5506 182.818 55.0354 182.599 55.4465C182.379 55.8542 182.065 56.1712 181.657 56.3973C181.249 56.62 180.762 56.7313 180.196 56.7313C179.626 56.7313 179.136 56.62 178.724 56.3973C178.312 56.1712 177.997 55.8542 177.777 55.4465C177.561 55.0354 177.453 54.5506 177.453 53.9921V49.8241H178.986V53.9099C178.986 54.2182 179.034 54.4786 179.13 54.691C179.23 54.9035 179.371 55.0645 179.552 55.1741C179.734 55.2803 179.949 55.3335 180.196 55.3335C180.439 55.3335 180.65 55.2803 180.829 55.1741C181.007 55.0645 181.144 54.9035 181.24 54.691C181.34 54.4786 181.389 54.2182 181.389 53.9099V49.8241Z" fill="#013B72"/>
<path d="M183.985 49.8241H186.754C187.148 49.8241 187.5 49.9064 187.809 50.0708C188.117 50.2353 188.361 50.4734 188.539 50.7852C188.721 51.0935 188.812 51.4619 188.812 51.8901C188.812 52.3184 188.735 52.6696 188.581 52.9437C188.43 53.2144 188.248 53.4182 188.035 53.5553C187.822 53.6889 187.625 53.7694 187.443 53.7968L189.095 56.608H187.366L185.894 53.915H185.524V56.608H183.985V49.8241ZM185.524 52.8512H186.203C186.478 52.8512 186.718 52.7844 186.924 52.6507C187.129 52.5171 187.232 52.2807 187.232 51.9415C187.232 51.6023 187.131 51.3676 186.929 51.2374C186.726 51.1038 186.488 51.037 186.213 51.037H185.524V52.8512Z" fill="#013B72"/>
<path d="M190.107 49.8241H194.445V51.1706H191.64V52.5531H194.419V53.8585H191.64V55.2615H194.445V56.608H190.107V49.8241Z" fill="#013B72"/>
</svg>
