<svg width="192" height="55" viewBox="0 0 192 55" fill="none" xmlns="http://www.w3.org/2000/svg">
<path d="M0.312724 0.755237H14.5862C16.9598 0.755237 19.1549 1.08041 21.1715 1.73075C23.2091 2.38109 24.8475 3.45101 26.0869 4.9405C27.3472 6.40901 27.9774 8.40199 27.9774 10.9194C27.9774 12.5768 27.6623 14.0558 27.0321 15.3564C26.423 16.6571 25.6037 17.727 24.5744 18.5662C23.5662 19.3844 22.4634 19.9298 21.266 20.2025C22.3163 20.3284 23.3351 20.6326 24.3224 21.1151C25.3307 21.5766 26.2339 22.227 27.0321 23.0661C27.8514 23.8843 28.492 24.9123 28.9542 26.15C29.4373 27.3668 29.6789 28.8143 29.6789 30.4926C29.6789 32.8213 29.1537 34.8772 28.1034 36.6604C27.0741 38.4226 25.5617 39.8072 23.5662 40.8142C21.5916 41.8002 19.1654 42.2932 16.2876 42.2932H0.312724V0.755237ZM9.73383 34.7723H14.019C15.3634 34.7723 16.4557 34.573 17.2959 34.1744C18.1572 33.7548 18.7873 33.1674 19.1865 32.4122C19.5856 31.636 19.7851 30.7129 19.7851 29.643C19.7851 27.9647 19.26 26.7374 18.2097 25.9612C17.1804 25.164 15.731 24.7654 13.8615 24.7654H9.73383V34.7723ZM9.73383 17.4019H13.5464C14.6597 17.4019 15.584 17.2026 16.3192 16.804C17.0754 16.4054 17.6425 15.8495 18.0206 15.1362C18.4197 14.4019 18.6193 13.5628 18.6193 12.6187C18.6193 10.9194 18.1362 9.7761 17.1699 9.1887C16.2036 8.58031 14.8803 8.27612 13.1998 8.27612H9.73383V17.4019Z" fill="white"/>
<path d="M54.1355 33.7338C56.0681 33.7338 57.8221 33.4506 59.3975 32.8842C60.9939 32.3178 62.1808 31.7618 62.958 31.2164L66.9911 39.2093C66.0038 40.0484 64.3129 40.8981 61.9182 41.7582C59.5445 42.6183 56.7193 43.0484 53.4423 43.0484C50.3755 43.0484 47.4977 42.5134 44.809 41.4435C42.1202 40.3736 39.7466 38.8736 37.688 36.9436C35.6504 34.9926 34.0435 32.7164 32.8671 30.115C31.7118 27.4927 31.1342 24.65 31.1342 21.5871C31.1342 18.5242 31.7118 15.6816 32.8671 13.0593C34.0225 10.416 35.6189 8.11878 37.6565 6.16776C39.715 4.21673 42.0887 2.70626 44.7774 1.63634C47.4872 0.545448 50.3755 0 53.4423 0C56.7193 0 59.5445 0.430065 61.9182 1.29019C64.3129 2.15032 66.0038 2.99996 66.9911 3.83911L62.958 11.832C62.1808 11.2656 60.9939 10.7097 59.3975 10.1642C57.8221 9.59778 56.0681 9.31457 54.1355 9.31457C51.9929 9.31457 50.1234 9.65023 48.527 10.3215C46.9305 10.9719 45.5967 11.874 44.5254 13.0278C43.4541 14.1816 42.6559 15.4823 42.1307 16.9299C41.6056 18.3774 41.343 19.8983 41.343 21.4927C41.343 23.1081 41.6056 24.65 42.1307 26.1186C42.6559 27.5661 43.4541 28.8668 44.5254 30.0206C45.5967 31.1744 46.9305 32.087 48.527 32.7583C50.1234 33.4087 51.9929 33.7338 54.1355 33.7338Z" fill="white"/>
<path d="M74.3346 12.6817L67.7178 16.1432V7.2062L79.313 0.755237H83.7557V42.2932H74.3346V12.6817Z" fill="white"/>
<path d="M85.7816 21.5557C85.7816 17.9473 86.2332 14.8005 87.1365 12.1152C88.0607 9.40897 89.3106 7.16425 90.886 5.38105C92.4825 3.57688 94.289 2.23424 96.3055 1.35313C98.3431 0.451043 100.475 0 102.702 0C104.928 0 107.05 0.451043 109.067 1.35313C111.104 2.23424 112.911 3.57688 114.486 5.38105C116.062 7.16425 117.301 9.40897 118.204 12.1152C119.107 14.8005 119.559 17.9473 119.559 21.5557C119.559 25.3948 119.107 28.678 118.204 31.4052C117.301 34.1324 116.062 36.3562 114.486 38.0764C112.911 39.7757 111.104 41.0344 109.067 41.8526C107.05 42.6498 104.928 43.0484 102.702 43.0484C100.475 43.0484 98.3431 42.6498 96.3055 41.8526C94.289 41.0344 92.4825 39.7757 90.886 38.0764C89.3106 36.3562 88.0607 34.1324 87.1365 31.4052C86.2332 28.678 85.7816 25.3948 85.7816 21.5557ZM95.2342 21.5557C95.2342 24.5556 95.5388 27.0311 96.148 28.9822C96.7572 30.9332 97.6184 32.3912 98.7317 33.3562C99.845 34.3003 101.168 34.7723 102.702 34.7723C104.235 34.7723 105.548 34.3003 106.64 33.3562C107.754 32.3912 108.604 30.9332 109.193 28.9822C109.802 27.0101 110.106 24.5347 110.106 21.5557C110.106 18.7445 109.802 16.3529 109.193 14.3809C108.604 12.4089 107.754 10.8985 106.64 9.84953C105.548 8.80059 104.235 8.27612 102.702 8.27612C101.168 8.27612 99.845 8.80059 98.7317 9.84953C97.6184 10.8985 96.7572 12.4089 96.148 14.3809C95.5388 16.3529 95.2342 18.7445 95.2342 21.5557Z" fill="white"/>
<path d="M119.986 21.5557C119.986 17.9473 120.437 14.8005 121.341 12.1152C122.265 9.40897 123.515 7.16425 125.09 5.38105C126.687 3.57688 128.493 2.23424 130.51 1.35313C132.547 0.451043 134.679 0 136.906 0C139.133 0 141.254 0.451043 143.271 1.35313C145.308 2.23424 147.115 3.57688 148.69 5.38105C150.266 7.16425 151.505 9.40897 152.408 12.1152C153.312 14.8005 153.763 17.9473 153.763 21.5557C153.763 25.3948 153.312 28.678 152.408 31.4052C151.505 34.1324 150.266 36.3562 148.69 38.0764C147.115 39.7757 145.308 41.0344 143.271 41.8526C141.254 42.6498 139.133 43.0484 136.906 43.0484C134.679 43.0484 132.547 42.6498 130.51 41.8526C128.493 41.0344 126.687 39.7757 125.09 38.0764C123.515 36.3562 122.265 34.1324 121.341 31.4052C120.437 28.678 119.986 25.3948 119.986 21.5557ZM129.438 21.5557C129.438 24.5556 129.743 27.0311 130.352 28.9822C130.961 30.9332 131.823 32.3912 132.936 33.3562C134.049 34.3003 135.373 34.7723 136.906 34.7723C138.439 34.7723 139.752 34.3003 140.845 33.3562C141.958 32.3912 142.809 30.9332 143.397 28.9822C144.006 27.0101 144.311 24.5347 144.311 21.5557C144.311 18.7445 144.006 16.3529 143.397 14.3809C142.809 12.4089 141.958 10.8985 140.845 9.84953C139.752 8.80059 138.439 8.27612 136.906 8.27612C135.373 8.27612 134.049 8.80059 132.936 9.84953C131.823 10.8985 130.961 12.4089 130.352 14.3809C129.743 16.3529 129.438 18.7445 129.438 21.5557Z" fill="white"/>
<path d="M179.609 25.7029V38.1643H168.908V25.7029H156.431V15.1021H168.908V2.6407H179.609V15.1021H192V25.7029H179.609Z" fill="white"/>
<path d="M0 48.3036H2.25996C2.63579 48.3036 2.98335 48.3551 3.30264 48.458C3.62525 48.561 3.88468 48.7304 4.08091 48.9662C4.28046 49.1988 4.38024 49.5143 4.38024 49.9129C4.38024 50.1753 4.33035 50.4095 4.23057 50.6154C4.13412 50.8214 4.00441 50.9908 3.84144 51.1237C3.68179 51.2532 3.50718 51.3396 3.31761 51.3827C3.4839 51.4027 3.64521 51.4508 3.80153 51.5272C3.96117 51.6003 4.10419 51.7033 4.23057 51.8361C4.36028 51.9657 4.46172 52.1284 4.53489 52.3244C4.61139 52.5171 4.64964 52.7463 4.64964 53.012C4.64964 53.3807 4.56649 53.7062 4.40019 53.9886C4.23722 54.2676 3.99776 54.4868 3.68179 54.6462C3.36916 54.8024 2.98501 54.8804 2.52936 54.8804H0V48.3036ZM1.49168 53.6896H2.17016C2.38302 53.6896 2.55597 53.6581 2.68901 53.5949C2.82537 53.5285 2.92515 53.4355 2.98834 53.3159C3.05153 53.193 3.08313 53.0469 3.08313 52.8775C3.08313 52.6117 2.99998 52.4174 2.83368 52.2945C2.67071 52.1683 2.44123 52.1052 2.14522 52.1052H1.49168V53.6896ZM1.49168 50.9393H2.09533C2.2716 50.9393 2.41794 50.9077 2.53435 50.8446C2.65409 50.7815 2.74389 50.6935 2.80375 50.5806C2.86694 50.4643 2.89854 50.3314 2.89854 50.182C2.89854 49.9129 2.82204 49.7319 2.66905 49.6389C2.51606 49.5426 2.30653 49.4944 2.04045 49.4944H1.49168V50.9393Z" fill="white"/>
<path d="M5.57352 48.3036H7.06519V53.575H9.45487V54.8804H5.57352V48.3036Z" fill="white"/>
<path d="M11.6112 51.587C11.6112 51.9624 11.6876 52.3028 11.8406 52.6084C11.997 52.9107 12.2115 53.1515 12.4842 53.3309C12.7603 53.5102 13.0795 53.5999 13.4421 53.5999C13.8046 53.5999 14.1222 53.5102 14.3949 53.3309C14.671 53.1515 14.8855 52.9107 15.0385 52.6084C15.1948 52.3028 15.273 51.9624 15.273 51.587C15.273 51.2117 15.1948 50.8729 15.0385 50.5706C14.8855 50.2683 14.671 50.0275 14.3949 49.8481C14.1222 49.6655 13.8046 49.5741 13.4421 49.5741C13.0795 49.5741 12.7603 49.6655 12.4842 49.8481C12.2115 50.0275 11.997 50.2683 11.8406 50.5706C11.6876 50.8729 11.6112 51.2117 11.6112 51.587ZM10.0596 51.587C10.0596 51.1087 10.1444 50.6636 10.314 50.2517C10.4837 49.8365 10.7215 49.4745 11.0275 49.1655C11.3334 48.8566 11.6926 48.6158 12.1051 48.4431C12.5175 48.2704 12.9631 48.184 13.4421 48.184C13.9277 48.184 14.375 48.2704 14.7841 48.4431C15.1965 48.6158 15.554 48.8566 15.8567 49.1655C16.1627 49.4745 16.3988 49.8365 16.5651 50.2517C16.7347 50.6636 16.8195 51.1087 16.8195 51.587C16.8195 52.0687 16.7381 52.5171 16.5751 52.9323C16.4121 53.3442 16.1793 53.7062 15.8766 54.0185C15.574 54.3274 15.2165 54.5682 14.804 54.7409C14.3916 54.9136 13.9376 55 13.4421 55C12.9365 55 12.4759 54.9136 12.0602 54.7409C11.6477 54.5682 11.2919 54.3274 10.9925 54.0185C10.6932 53.7062 10.462 53.3442 10.2991 52.9323C10.1394 52.5171 10.0596 52.0687 10.0596 51.587Z" fill="white"/>
<path d="M21.1617 53.5252C21.4677 53.5252 21.7454 53.4804 21.9949 53.3907C22.2477 53.301 22.4356 53.213 22.5586 53.1266L23.1972 54.3921C23.0409 54.525 22.7732 54.6595 22.394 54.7957C22.0182 54.9319 21.5708 55 21.052 55C20.5664 55 20.1108 54.9153 19.685 54.7459C19.2593 54.5765 18.8835 54.339 18.5575 54.0334C18.2349 53.7245 17.9805 53.3641 17.7942 52.9522C17.6113 52.537 17.5199 52.0869 17.5199 51.602C17.5199 51.117 17.6113 50.6669 17.7942 50.2517C17.9772 49.8332 18.2299 49.4695 18.5526 49.1606C18.8785 48.8517 19.2543 48.6125 19.68 48.4431C20.1091 48.2704 20.5664 48.184 21.052 48.184C21.5708 48.184 22.0182 48.2521 22.394 48.3883C22.7732 48.5245 23.0409 48.659 23.1972 48.7919L22.5586 50.0574C22.4356 49.9677 22.2477 49.8797 21.9949 49.7933C21.7454 49.7037 21.4677 49.6588 21.1617 49.6588C20.8225 49.6588 20.5265 49.712 20.2737 49.8182C20.021 49.9212 19.8098 50.0641 19.6401 50.2467C19.4705 50.4294 19.3441 50.6354 19.261 50.8646C19.1778 51.0938 19.1363 51.3346 19.1363 51.587C19.1363 51.8428 19.1778 52.0869 19.261 52.3194C19.3441 52.5486 19.4705 52.7546 19.6401 52.9373C19.8098 53.12 20.021 53.2644 20.2737 53.3707C20.5265 53.4737 20.8225 53.5252 21.1617 53.5252Z" fill="white"/>
<path d="M26.7945 51.4824L29.2989 54.8804H27.5179L25.4924 52.0055V54.8804H24.0007V48.3036H25.4924V50.9941L27.3582 48.3036H29.0395L26.7945 51.4824Z" fill="white"/>
<path d="M33.3709 53.5252C33.6768 53.5252 33.9546 53.4804 34.204 53.3907C34.4568 53.301 34.6447 53.213 34.7677 53.1266L35.4063 54.3921C35.25 54.525 34.9823 54.6595 34.6031 54.7957C34.2273 54.9319 33.7799 55 33.2611 55C32.7755 55 32.3199 54.9153 31.8942 54.7459C31.4684 54.5765 31.0926 54.339 30.7667 54.0334C30.4441 53.7245 30.1896 53.3641 30.0034 52.9522C29.8204 52.537 29.729 52.0869 29.729 51.602C29.729 51.117 29.8204 50.6669 30.0034 50.2517C30.1863 49.8332 30.4391 49.4695 30.7617 49.1606C31.0876 48.8517 31.4634 48.6125 31.8892 48.4431C32.3182 48.2704 32.7755 48.184 33.2611 48.184C33.7799 48.184 34.2273 48.2521 34.6031 48.3883C34.9823 48.5245 35.25 48.659 35.4063 48.7919L34.7677 50.0574C34.6447 49.9677 34.4568 49.8797 34.204 49.7933C33.9546 49.7037 33.6768 49.6588 33.3709 49.6588C33.0316 49.6588 32.7356 49.712 32.4828 49.8182C32.2301 49.9212 32.0189 50.0641 31.8493 50.2467C31.6796 50.4294 31.5532 50.6354 31.4701 50.8646C31.3869 51.0938 31.3454 51.3346 31.3454 51.587C31.3454 51.8428 31.3869 52.0869 31.4701 52.3194C31.5532 52.5486 31.6796 52.7546 31.8493 52.9373C32.0189 53.12 32.2301 53.2644 32.4828 53.3707C32.7356 53.4737 33.0316 53.5252 33.3709 53.5252Z" fill="white"/>
<path d="M40.0762 52.2347H37.8013V54.8804H36.3146V48.3036H37.8013V50.9343H40.0762V48.3036H41.5579V54.8804H40.0762V52.2347Z" fill="white"/>
<path d="M44.8224 48.3036H46.3041L48.9033 54.8804H47.3118L46.8329 53.5601H44.2985L43.8146 54.8804H42.2182L44.8224 48.3036ZM44.7974 52.2547H46.339L45.5757 50.0973H45.5607L44.7974 52.2547Z" fill="white"/>
<path d="M49.4848 48.3036H50.9765V54.8804H49.4848V48.3036Z" fill="white"/>
<path d="M53.5109 49.6688L53.6207 49.6887V54.8804H52.129V48.3036H54.1644L56.8335 53.4853L56.7237 53.5053V48.3036H58.2154V54.8804H56.17L53.5109 49.6688Z" fill="white"/>
<path d="M62.02 48.3036H65.8265V49.609H63.5117V50.9343H65.6519V52.2347H63.5117V54.8804H62.02V48.3036Z" fill="white"/>
<path d="M68.1161 51.587C68.1161 51.9624 68.1926 52.3028 68.3456 52.6084C68.5019 52.9107 68.7164 53.1515 68.9891 53.3309C69.2652 53.5102 69.5845 53.5999 69.947 53.5999C70.3095 53.5999 70.6272 53.5102 70.8999 53.3309C71.1759 53.1515 71.3904 52.9107 71.5434 52.6084C71.6998 52.3028 71.7779 51.9624 71.7779 51.587C71.7779 51.2117 71.6998 50.8729 71.5434 50.5706C71.3904 50.2683 71.1759 50.0275 70.8999 49.8481C70.6272 49.6655 70.3095 49.5741 69.947 49.5741C69.5845 49.5741 69.2652 49.6655 68.9891 49.8481C68.7164 50.0275 68.5019 50.2683 68.3456 50.5706C68.1926 50.8729 68.1161 51.2117 68.1161 51.587ZM66.5645 51.587C66.5645 51.1087 66.6494 50.6636 66.819 50.2517C66.9886 49.8365 67.2264 49.4745 67.5324 49.1655C67.8384 48.8566 68.1976 48.6158 68.61 48.4431C69.0224 48.2704 69.4681 48.184 69.947 48.184C70.4326 48.184 70.8799 48.2704 71.289 48.4431C71.7014 48.6158 72.059 48.8566 72.3616 49.1655C72.6676 49.4745 72.9037 49.8365 73.07 50.2517C73.2397 50.6636 73.3245 51.1087 73.3245 51.587C73.3245 52.0687 73.243 52.5171 73.08 52.9323C72.9171 53.3442 72.6842 53.7062 72.3816 54.0185C72.0789 54.3274 71.7214 54.5682 71.309 54.7409C70.8965 54.9136 70.4426 55 69.947 55C69.4415 55 68.9808 54.9136 68.5651 54.7409C68.1527 54.5682 67.7968 54.3274 67.4975 54.0185C67.1981 53.7062 66.967 53.3442 66.804 52.9323C66.6444 52.5171 66.5645 52.0687 66.5645 51.587Z" fill="white"/>
<path d="M74.1495 48.3036H76.8335C77.216 48.3036 77.5569 48.3833 77.8563 48.5427C78.1556 48.7022 78.3917 48.933 78.5647 49.2353C78.7409 49.5342 78.8291 49.8913 78.8291 50.3065C78.8291 50.7217 78.7542 51.0622 78.6046 51.3279C78.4582 51.5903 78.282 51.788 78.0758 51.9208C77.8696 52.0504 77.6783 52.1284 77.502 52.155L79.1035 54.8804H77.4272L76.0004 52.2696H75.6412V54.8804H74.1495V48.3036ZM75.6412 51.2382H76.2997C76.5658 51.2382 76.7986 51.1735 76.9982 51.0439C77.1977 50.9144 77.2975 50.6852 77.2975 50.3564C77.2975 50.0275 77.1994 49.8 77.0031 49.6738C76.8069 49.5442 76.5758 49.4794 76.3097 49.4794H75.6412V51.2382Z" fill="white"/>
<path d="M84.8601 48.3036H86.3418L88.941 54.8804H87.3495L86.8706 53.5601H84.3363L83.8523 54.8804H82.2559L84.8601 48.3036ZM84.8352 52.2547H86.3767L85.6134 50.0973H85.5984L84.8352 52.2547Z" fill="white"/>
<path d="M94.5079 48.184C94.917 48.184 95.2745 48.2288 95.5805 48.3185C95.8865 48.4082 96.1326 48.5029 96.3189 48.6025C96.5051 48.7022 96.6182 48.7686 96.6581 48.8018L95.9397 50.0026C95.8865 49.9627 95.795 49.9046 95.6653 49.8282C95.5389 49.7518 95.3876 49.6837 95.2113 49.6239C95.0384 49.5641 94.8571 49.5342 94.6675 49.5342C94.4114 49.5342 94.2036 49.5808 94.0439 49.6738C93.8876 49.7634 93.8094 49.898 93.8094 50.0773C93.8094 50.2002 93.851 50.3115 93.9342 50.4112C94.0206 50.5075 94.1504 50.6005 94.3233 50.6902C94.4996 50.7765 94.7224 50.8712 94.9918 50.9742C95.2379 51.0639 95.4691 51.1702 95.6853 51.2931C95.9015 51.416 96.091 51.5621 96.254 51.7315C96.4203 51.8976 96.5517 52.0902 96.6481 52.3095C96.7446 52.5287 96.7928 52.7778 96.7928 53.0568C96.7928 53.389 96.7246 53.678 96.5883 53.9238C96.4519 54.1663 96.2656 54.3672 96.0295 54.5267C95.7967 54.6861 95.5306 54.804 95.2313 54.8804C94.9353 54.9601 94.6276 55 94.3083 55C93.856 55 93.4502 54.9485 93.091 54.8455C92.7352 54.7426 92.4475 54.6313 92.228 54.5117C92.0085 54.3921 91.8771 54.3124 91.8339 54.2726L92.5772 53.022C92.6171 53.0519 92.6936 53.1 92.8067 53.1665C92.9231 53.2329 93.0644 53.3026 93.2307 53.3757C93.397 53.4455 93.5733 53.5053 93.7596 53.5551C93.9491 53.6049 94.1354 53.6298 94.3183 53.6298C94.6243 53.6298 94.8538 53.5717 95.0068 53.4554C95.1598 53.3359 95.2363 53.1797 95.2363 52.9871C95.2363 52.8443 95.188 52.7164 95.0916 52.6034C94.9951 52.4905 94.8505 52.3842 94.6576 52.2846C94.4647 52.1816 94.2235 52.0736 93.9342 51.9607C93.6448 51.8444 93.3737 51.7033 93.121 51.5372C92.8715 51.3711 92.6687 51.1635 92.5123 50.9144C92.356 50.6653 92.2779 50.3564 92.2779 49.9877C92.2779 49.619 92.381 49.3001 92.5872 49.031C92.7967 48.7586 93.0711 48.5494 93.4103 48.4032C93.7529 48.2571 94.1188 48.184 94.5079 48.184Z" fill="white"/>
<path d="M101.498 48.3036H102.99V52.3444C102.99 52.8858 102.883 53.3558 102.67 53.7544C102.458 54.1497 102.153 54.4569 101.757 54.6761C101.362 54.892 100.889 55 100.341 55C99.7885 55 99.3129 54.892 98.9138 54.6761C98.5147 54.4569 98.2087 54.1497 97.9958 53.7544C97.7863 53.3558 97.6815 52.8858 97.6815 52.3444V48.3036H99.1682V52.2646C99.1682 52.5636 99.2148 52.816 99.3079 53.022C99.4043 53.2279 99.5407 53.384 99.717 53.4903C99.8933 53.5933 100.101 53.6448 100.341 53.6448C100.577 53.6448 100.781 53.5933 100.954 53.4903C101.127 53.384 101.26 53.2279 101.353 53.022C101.45 52.816 101.498 52.5636 101.498 52.2646V48.3036Z" fill="white"/>
<path d="M106.444 48.184C106.853 48.184 107.211 48.2288 107.517 48.3185C107.823 48.4082 108.069 48.5029 108.255 48.6025C108.441 48.7022 108.554 48.7686 108.594 48.8018L107.876 50.0026C107.823 49.9627 107.731 49.9046 107.602 49.8282C107.475 49.7518 107.324 49.6837 107.148 49.6239C106.975 49.5641 106.793 49.5342 106.604 49.5342C106.348 49.5342 106.14 49.5808 105.98 49.6738C105.824 49.7634 105.746 49.898 105.746 50.0773C105.746 50.2002 105.787 50.3115 105.87 50.4112C105.957 50.5075 106.087 50.6005 106.26 50.6902C106.436 50.7765 106.659 50.8712 106.928 50.9742C107.174 51.0639 107.405 51.1702 107.622 51.2931C107.838 51.416 108.027 51.5621 108.19 51.7315C108.357 51.8976 108.488 52.0902 108.584 52.3095C108.681 52.5287 108.729 52.7778 108.729 53.0568C108.729 53.389 108.661 53.678 108.525 53.9238C108.388 54.1663 108.202 54.3672 107.966 54.5267C107.733 54.6861 107.467 54.804 107.168 54.8804C106.872 54.9601 106.564 55 106.245 55C105.792 55 105.387 54.9485 105.027 54.8455C104.671 54.7426 104.384 54.6313 104.164 54.5117C103.945 54.3921 103.813 54.3124 103.77 54.2726L104.513 53.022C104.553 53.0519 104.63 53.1 104.743 53.1665C104.859 53.2329 105.001 53.3026 105.167 53.3757C105.333 53.4455 105.51 53.5053 105.696 53.5551C105.885 53.6049 106.072 53.6298 106.255 53.6298C106.561 53.6298 106.79 53.5717 106.943 53.4554C107.096 53.3359 107.173 53.1797 107.173 52.9871C107.173 52.8443 107.124 52.7164 107.028 52.6034C106.931 52.4905 106.787 52.3842 106.594 52.2846C106.401 52.1816 106.16 52.0736 105.87 51.9607C105.581 51.8444 105.31 51.7033 105.057 51.5372C104.808 51.3711 104.605 51.1635 104.449 50.9144C104.292 50.6653 104.214 50.3564 104.214 49.9877C104.214 49.619 104.317 49.3001 104.523 49.031C104.733 48.7586 105.007 48.5494 105.347 48.4032C105.689 48.2571 106.055 48.184 106.444 48.184Z" fill="white"/>
<path d="M110.855 49.609H109.284V48.3036H113.913V49.609H112.347V54.8804H110.855V49.609Z" fill="white"/>
<path d="M116.119 48.3036H117.6L120.199 54.8804H118.608L118.129 53.5601H115.595L115.111 54.8804H113.514L116.119 48.3036ZM116.094 52.2547H117.635L116.872 50.0973H116.857L116.094 52.2547Z" fill="white"/>
<path d="M120.781 48.3036H122.273V54.8804H120.781V48.3036Z" fill="white"/>
<path d="M124.807 49.6688L124.917 49.6887V54.8804H123.425V48.3036H125.461L128.13 53.4853L128.02 53.5053V48.3036H129.512V54.8804H127.466L124.807 49.6688Z" fill="white"/>
<path d="M132.771 48.3036H134.253L136.852 54.8804H135.26L134.781 53.5601H132.247L131.763 54.8804H130.167L132.771 48.3036ZM132.746 52.2547H134.288L133.524 50.0973H133.509L132.746 52.2547Z" fill="white"/>
<path d="M137.418 48.3036H139.678C140.054 48.3036 140.402 48.3551 140.721 48.458C141.044 48.561 141.303 48.7304 141.499 48.9662C141.699 49.1988 141.799 49.5143 141.799 49.9129C141.799 50.1753 141.749 50.4095 141.649 50.6154C141.552 50.8214 141.423 50.9908 141.26 51.1237C141.1 51.2532 140.926 51.3396 140.736 51.3827C140.902 51.4027 141.064 51.4508 141.22 51.5272C141.38 51.6003 141.523 51.7033 141.649 51.8361C141.779 51.9657 141.88 52.1284 141.953 52.3244C142.03 52.5171 142.068 52.7463 142.068 53.012C142.068 53.3807 141.985 53.7062 141.819 53.9886C141.656 54.2676 141.416 54.4868 141.1 54.6462C140.787 54.8024 140.403 54.8804 139.948 54.8804H137.418V48.3036ZM138.91 53.6896H139.589C139.801 53.6896 139.974 53.6581 140.107 53.5949C140.244 53.5285 140.343 53.4355 140.407 53.3159C140.47 53.193 140.501 53.0469 140.501 52.8775C140.501 52.6117 140.418 52.4174 140.252 52.2945C140.089 52.1683 139.86 52.1052 139.564 52.1052H138.91V53.6896ZM138.91 50.9393H139.514C139.69 50.9393 139.836 50.9077 139.953 50.8446C140.072 50.7815 140.162 50.6935 140.222 50.5806C140.285 50.4643 140.317 50.3314 140.317 50.182C140.317 49.9129 140.24 49.7319 140.087 49.6389C139.934 49.5426 139.725 49.4944 139.459 49.4944H138.91V50.9393Z" fill="white"/>
<path d="M142.992 48.3036H144.484V53.575H146.873V54.8804H142.992V48.3036Z" fill="white"/>
<path d="M147.843 48.3036H152.049V49.609H149.33V50.9493H152.024V52.2148H149.33V53.575H152.049V54.8804H147.843V48.3036Z" fill="white"/>
<path d="M155.854 48.3036H159.66V49.609H157.346V50.9343H159.486V52.2347H157.346V54.8804H155.854V48.3036Z" fill="white"/>
<path d="M164.414 48.3036H165.906V52.3444C165.906 52.8858 165.8 53.3558 165.587 53.7544C165.374 54.1497 165.07 54.4569 164.674 54.6761C164.278 54.892 163.806 55 163.257 55C162.705 55 162.229 54.892 161.83 54.6761C161.431 54.4569 161.125 54.1497 160.912 53.7544C160.703 53.3558 160.598 52.8858 160.598 52.3444V48.3036H162.085V52.2646C162.085 52.5636 162.131 52.816 162.224 53.022C162.321 53.2279 162.457 53.384 162.633 53.4903C162.81 53.5933 163.018 53.6448 163.257 53.6448C163.493 53.6448 163.698 53.5933 163.871 53.4903C164.044 53.384 164.177 53.2279 164.27 53.022C164.366 52.816 164.414 52.5636 164.414 52.2646V48.3036Z" fill="white"/>
<path d="M168.188 49.609H166.617V48.3036H171.246V49.609H169.68V54.8804H168.188V49.609Z" fill="white"/>
<path d="M175.854 48.3036H177.345V52.3444C177.345 52.8858 177.239 53.3558 177.026 53.7544C176.813 54.1497 176.509 54.4569 176.113 54.6761C175.717 54.892 175.245 55 174.696 55C174.144 55 173.669 54.892 173.27 54.6761C172.87 54.4569 172.564 54.1497 172.352 53.7544C172.142 53.3558 172.037 52.8858 172.037 52.3444V48.3036H173.524V52.2646C173.524 52.5636 173.571 52.816 173.664 53.022C173.76 53.2279 173.896 53.384 174.073 53.4903C174.249 53.5933 174.457 53.6448 174.696 53.6448C174.933 53.6448 175.137 53.5933 175.31 53.4903C175.483 53.384 175.616 53.2279 175.709 53.022C175.806 52.816 175.854 52.5636 175.854 52.2646V48.3036Z" fill="white"/>
<path d="M178.37 48.3036H181.054C181.437 48.3036 181.778 48.3833 182.077 48.5427C182.376 48.7022 182.613 48.933 182.786 49.2353C182.962 49.5342 183.05 49.8913 183.05 50.3065C183.05 50.7217 182.975 51.0622 182.825 51.3279C182.679 51.5903 182.503 51.788 182.297 51.9208C182.09 52.0504 181.899 52.1284 181.723 52.155L183.324 54.8804H181.648L180.221 52.2696H179.862V54.8804H178.37V48.3036ZM179.862 51.2382H180.521C180.787 51.2382 181.019 51.1735 181.219 51.0439C181.419 50.9144 181.518 50.6852 181.518 50.3564C181.518 50.0275 181.42 49.8 181.224 49.6738C181.028 49.5442 180.797 49.4794 180.531 49.4794H179.862V51.2382Z" fill="white"/>
<path d="M184.305 48.3036H188.511V49.609H185.792V50.9493H188.486V52.2148H185.792V53.575H188.511V54.8804H184.305V48.3036Z" fill="white"/>
</svg>
